<svg xmlns="http://www.w3.org/2000/svg" width="140" height="19" viewBox="0 0 140 19">z<g><g><path fill="#fff" d="M9.861 7.727h4.184c.428.016.773.075 1.034.178.262.104.444.262.547.476.103.214.167.404.19.57.024.167.036.425.036.773v5.231c0 .507-.222.99-.666 1.45a5.809 5.809 0 0 1-1.474 1.117c-1.268.634-2.773.951-4.517.951-2.36 0-4.414-.892-6.157-2.675C1.294 14.015.423 11.84.423 9.272c0-2.472.887-4.552 2.663-6.24C4.861 1.344 6.952.5 9.362.5c1.648 0 3.193.46 4.636 1.38.3.205.526.364.677.474.15.111.293.266.428.464.134.198.202.408.202.63 0 .365-.182.8-.547 1.307-.618.841-1.18 1.26-1.688 1.26-.3 0-.72-.182-1.259-.546a4.68 4.68 0 0 0-2.568-.76c-1.205 0-2.275.423-3.21 1.271-.935.848-1.402 1.961-1.402 3.34 0 1.364.475 2.524 1.426 3.483.951.96 2.03 1.438 3.233 1.438.872 0 1.656-.142 2.354-.428v-2.59H9.766c-.3 0-.519-.013-.654-.037a1.307 1.307 0 0 1-.452-.19c-.166-.103-.28-.277-.344-.523-.064-.246-.095-.582-.095-1.01 0-.412.036-.745.106-.999.072-.253.203-.428.393-.523.19-.095.352-.154.487-.178.135-.024.353-.036.654-.036z"/></g><g><path fill="#fff" d="M32.042 3.139c1.727 1.696 2.591 3.844 2.591 6.442 0 2.426-.824 4.522-2.473 6.289-1.648 1.768-3.653 2.65-6.014 2.65-2.457 0-4.529-.872-6.217-2.615-1.688-1.743-2.532-3.82-2.532-6.229 0-1.315.238-2.547.713-3.697.476-1.149 1.11-2.112 1.902-2.888a8.886 8.886 0 0 1 2.734-1.83 7.989 7.989 0 0 1 3.186-.667c2.345 0 4.382.85 6.11 2.544zm-2.972 9.89c.903-.857 1.355-2.013 1.355-3.472 0-1.426-.456-2.575-1.367-3.447-.91-.87-1.922-1.308-3.03-1.308-1.142 0-2.165.44-3.068 1.32-.903.88-1.355 2.033-1.355 3.46 0 1.394.455 2.531 1.367 3.411.911.88 1.922 1.32 3.031 1.32 1.141 0 2.164-.429 3.067-1.285z"/></g><g><path fill="#fff" d="M50.467 3.139c1.727 1.696 2.591 3.844 2.591 6.442 0 2.426-.824 4.522-2.473 6.289-1.648 1.768-3.653 2.65-6.014 2.65-2.457 0-4.529-.872-6.217-2.615-1.688-1.743-2.532-3.82-2.532-6.229 0-1.315.238-2.547.713-3.697.476-1.149 1.11-2.112 1.902-2.888a8.886 8.886 0 0 1 2.734-1.83 7.989 7.989 0 0 1 3.186-.667c2.345 0 4.382.85 6.11 2.544zm-2.972 9.89c.903-.857 1.355-2.013 1.355-3.472 0-1.426-.456-2.575-1.367-3.447-.91-.87-1.922-1.308-3.03-1.308-1.142 0-2.165.44-3.068 1.32-.903.88-1.355 2.033-1.355 3.46 0 1.394.455 2.531 1.367 3.411.911.88 1.922 1.32 3.031 1.32 1.141 0 2.164-.429 3.067-1.285z"/></g><g><path fill="#fff" d="M67.239 15.62c-1.703 1.727-3.768 2.591-6.193 2.591h-4.35c-.476 0-.864-.047-1.165-.142-.301-.096-.516-.25-.642-.464a1.769 1.769 0 0 1-.238-.642 6.182 6.182 0 0 1-.047-.868V2.877c0-.38.01-.658.035-.832.024-.174.099-.38.226-.618s.34-.404.642-.5c.3-.094.705-.142 1.213-.142.475 0 1.203.004 2.187.012.982.008 1.719.012 2.21.012 2.299 0 4.319.828 6.063 2.484 1.743 1.656 2.615 3.697 2.615 6.122 0 2.41-.852 4.478-2.556 6.205zm-2.995-9.308c-.896-.863-1.946-1.295-3.15-1.295h-2.282v8.986h2.306c1.14 0 2.17-.424 3.09-1.272.919-.847 1.379-1.92 1.379-3.22 0-1.269-.448-2.335-1.343-3.199z"/></g><g><path fill="#fff" d="M82.87.81c.365 0 .639.011.82.035.183.023.389.1.619.225.229.128.393.342.488.642.095.302.142.706.142 1.213 0 .507-.047.911-.142 1.212-.095.302-.262.511-.5.63-.238.12-.447.19-.63.214a7.11 7.11 0 0 1-.844.036h-7.274v2.401h4.683c.38 0 .66.012.844.036.182.023.388.1.618.226.23.127.392.344.488.653.095.31.142.718.142 1.225 0 .412-.04.753-.12 1.022-.08.27-.173.475-.284.618a.994.994 0 0 1-.487.321 2.165 2.165 0 0 1-.547.12c-.151.007-.377.011-.678.011h-4.66v4.493c0 .38-.011.658-.035.832-.024.175-.1.38-.226.618-.127.238-.341.404-.642.5-.301.094-.705.142-1.212.142-.413 0-.753-.039-1.023-.119-.27-.079-.475-.174-.618-.285a.996.996 0 0 1-.321-.487 2.156 2.156 0 0 1-.12-.547 14.29 14.29 0 0 1-.01-.678V2.901c0-.808.15-1.359.45-1.652.302-.294.872-.44 1.713-.44z"/></g><g><path fill="#fff" d="M90.692 14.717h6.466c.317 0 .551.012.701.036.151.024.321.083.512.178.19.095.324.269.404.523.08.254.12.594.12 1.022 0 .413-.04.745-.12.999-.08.253-.218.43-.416.534a1.746 1.746 0 0 1-.535.19 4.961 4.961 0 0 1-.69.037h-8.558c-.412 0-.753-.04-1.023-.12-.269-.078-.475-.174-.618-.285a.998.998 0 0 1-.32-.487 2.149 2.149 0 0 1-.119-.547c-.009-.15-.012-.376-.012-.678V2.902c0-.365.012-.64.036-.821.023-.182.098-.392.225-.63s.341-.404.642-.5C87.688.858 88.092.81 88.6.81c.411 0 .752.04 1.022.119.27.08.475.175.618.285a1 1 0 0 1 .321.488c.071.214.111.396.12.547.007.15.011.376.011.677z"/></g><g><path fill="#fff" d="M111.304 1.142c.776.54 1.165 1.062 1.165 1.57 0 .3-.183.72-.547 1.26l-5.135 7.678v4.541c0 .365-.012.638-.036.82a1.887 1.887 0 0 1-.226.63c-.126.237-.341.404-.641.5-.302.094-.706.142-1.213.142-.507 0-.911-.048-1.212-.143-.301-.095-.516-.265-.642-.51a2.027 2.027 0 0 1-.226-.643 7.12 7.12 0 0 1-.036-.844V11.65L97.42 3.971c-.365-.539-.547-.959-.547-1.26 0-.507.396-1.03 1.189-1.569.602-.396 1.1-.594 1.498-.594a1 1 0 0 1 .582.19c.182.127.325.253.428.38.103.127.24.325.416.594l3.685 5.896 3.685-5.896a7.33 7.33 0 0 1 .416-.594 2.08 2.08 0 0 1 .428-.38c.182-.127.384-.19.606-.19.365 0 .864.198 1.498.594z"/></g><g><path fill="#fff" d="M123.835 8.672l-1.232-.6-3.562-1.716c-.178-.086-.36-.165-.363-.408-.003-.258.19-.336.378-.422 1.215-.557 1.212-.543 2.533-.308 2.004.357 4.012.69 6.017 1.04a.68.68 0 0 0 .498-.094c.987-.588 1.974-1.181 2.978-1.742 1.349-.754 2.778-1.258 4.35-1.191 1.115.047 2.174.382 3.227.725.206.067.424.15.588.285.63.515.687 1.305.112 1.883-.25.25-.564.47-.889.607-7.155 3.02-14.317 6.025-21.475 9.035-.743.313-1.389.196-1.979-.357-.905-.848-1.827-1.68-2.74-2.517-.307-.281-.385-.574-.238-.873.15-.305.448-.425.862-.333.871.193 1.741.399 2.614.587 1.086.234 2.123.076 3.078-.48 1.706-.991 3.398-2.008 5.096-3.015.036-.022.07-.05.146-.106z"/></g><g><path fill="#fff" d="M128.834 11.904c-.049.09-.089.166-.132.24l-2.128 3.614c-.366.62-.908.879-1.609.769-.196-.031-.278-.154-.237-.341.208-.923.418-1.845.635-2.766.013-.063.085-.134.148-.161a610.22 610.22 0 0 1 3.229-1.354c.02-.01.05-.001.094-.001z"/></g></g></svg>