<svg xmlns="http://www.w3.org/2000/svg" width="41" height="41" viewBox="0 0 41 41"><g><g><path fill="#999" d="M29.048.145c2.338.066 4.604.483 6.636 1.723 2.664 1.625 4.293 4.022 4.819 7.067.314 1.82.422 3.694.45 5.546.06 3.983.038 7.968-.006 11.952-.023 2.09-.092 4.19-.786 6.2-1.345 3.9-4.081 6.269-8.093 7.032-1.813.345-3.693.423-5.546.452-3.968.06-7.94.036-11.908-.006-2.091-.023-4.19-.092-6.202-.78-3.905-1.335-6.275-4.071-7.05-8.08C1.015 29.44.938 27.56.91 25.707c-.061-3.983-.037-7.968.006-11.952.023-2.09.093-4.19.787-6.201 1.345-3.9 4.08-6.267 8.093-7.03C11.608.179 13.487.14 15.34.068c1.872-.073 3.749-.016 5.624-.016v-.056c2.695.048 5.389.074 8.083.149zm8.31 19.626c0-1.582.032-3.165-.01-4.746-.04-1.521-.098-3.045-.251-4.558-.344-3.392-2.363-5.73-5.701-6.363-1.755-.334-3.578-.385-5.372-.418a306.683 306.683 0 0 0-10.196-.003c-1.694.026-3.404.09-5.074.35-2.9.453-4.882 2.112-5.684 4.988a11.74 11.74 0 0 0-.43 2.855c-.087 3.63-.14 7.263-.128 10.895.009 2.31.06 4.629.262 6.93.302 3.448 2.4 5.8 5.797 6.417 1.745.317 3.552.356 5.333.386 3.354.057 6.71.04 10.064.005a52.407 52.407 0 0 0 4.602-.254c1.429-.141 2.766-.607 3.916-1.52 1.863-1.48 2.583-3.521 2.693-5.785.149-3.056.179-6.118.26-9.177l-.081-.002z"/></g><g><path fill="#999" d="M20.92 30.393c-5.747 0-10.29-4.59-10.287-10.398.002-5.66 4.633-10.203 10.397-10.2 5.629.004 10.2 4.623 10.2 10.31a10.259 10.259 0 0 1-10.31 10.288zm6.693-10.295c.004-3.664-3.016-6.688-6.677-6.686-3.67.001-6.683 3.01-6.686 6.677-.004 3.663 3.012 6.683 6.677 6.687 3.663.004 6.683-3.012 6.686-6.678z"/></g></g></svg>