<svg xmlns="http://www.w3.org/2000/svg" width="32" height="38" viewBox="0 0 32 38"><g><g><path fill="#999" d="M6.54 19.688s.6.183.339 1.304l-.677 2.243s-.444.418-1.122.08c0 0-5.441-1.95-4.337-11.039 0 0 1.05-7.722 8.72-10.61 7.669-2.89 14.183-.054 14.972.366.787.421 7.72 4.624 7.09 12.871-.63 8.247-4.726 11.242-5.567 11.977-.84.736-8.3 4.99-12.451-.473l-2.1 7.617s-1.051 2.627-1.944 3.415c0 0-2.575-.735-2.68-1.05 0 0-.157-3.573.263-4.78l3.1-12.818s-1.366-3.625-.367-6.04c0 0 1.575-4.257 4.832-3.52 0 0 2.94.682 2.312 4.516l-1.734 6.041s-.788 2.837.525 3.993c0 0 2.207 2.836 6.094.21 0 0 2.784-1.104 3.887-8.352 0 0 .894-6.462-2.626-9.142 0 0-3.993-3.833-11.241-1.469 0 0-5.465 1.89-6.568 7.722 0 0-1.011 3.371 1.28 6.938z"/></g></g></svg>