<svg xmlns="http://www.w3.org/2000/svg" width="37" height="35" viewBox="0 0 37 35"><g><g><path fill="#999" d="M32.713 15.303c.095.541-.1.981-.47 1.36a1.046 1.046 0 0 1-.65.331 6.434 6.434 0 0 0-1.848.502 3.416 3.416 0 0 0-.724.43c-.636.501-.847 1.159-.623 1.939.147.511.407.968.743 1.372.58.697 1.104 1.439 1.73 2.097.903.95 1.893 1.785 3.161 2.2.608.198 1.234.343 1.797.654.214.119.471.194.596.451.142.292.131.456-.1.694-.239.246-.54.397-.849.533-.947.419-1.947.668-2.954.89-.305.067-.61.133-.918.186-.134.023-.183.066-.169.212.03.289 0 .578-.06.862-.214 1.023-.85 1.435-1.866 1.206-.197-.045-.4-.091-.58-.177-1.176-.558-2.259-.335-3.305.346-1.232.801-2.496 1.547-3.849 2.131-.9.389-1.827.695-2.805.8-1.029.11-1.998-.183-2.949-.527-1.507-.545-2.88-1.352-4.23-2.203-.298-.188-.6-.366-.912-.529-.79-.414-1.597-.444-2.422-.124-.372.145-.745.278-1.145.331-.679.091-1.223-.217-1.472-.853a2.89 2.89 0 0 1-.174-1.221c.01-.164-.019-.226-.194-.259-1.235-.238-2.463-.507-3.635-.979-.334-.135-.66-.288-.942-.517-.428-.347-.425-.704.02-1.034.488-.365 1.055-.577 1.634-.725 1.101-.282 2.04-.841 2.886-1.576a11.11 11.11 0 0 0 1.652-1.788c.326-.44.721-.824 1.026-1.28.351-.524.66-1.064.678-1.719a1.346 1.346 0 0 0-.058-.463c-.123-.485-.447-.815-.849-1.077-.662-.43-1.405-.635-2.174-.759-.764-.123-1.316-.691-1.337-1.382a1.136 1.136 0 0 1 .27-.778c.598-.732 1.557-.942 2.412-.529.385.186.774.357 1.192.461a1.4 1.4 0 0 0 .417.027c.252-.014.381-.273.344-.474-.335-1.791-.46-3.588-.179-5.403a10.09 10.09 0 0 1 1.808-4.438 8.748 8.748 0 0 1 1.284-1.41c1.386-1.239 3.02-1.985 4.85-2.309A9.63 9.63 0 0 1 18.63.62a10.43 10.43 0 0 1 3.554.685c1.292.495 2.438 1.22 3.407 2.205 1.245 1.264 2.056 2.778 2.484 4.499.513 2.063.431 4.127.027 6.193-.094.48.064.667.555.615.481-.052.914-.261 1.342-.47.845-.412 1.74-.252 2.382.423.15.156.24.344.331.533z"/></g></g></svg>