<svg xmlns="http://www.w3.org/2000/svg" width="39" height="33" viewBox="0 0 39 33"><g><g><path fill="#999" d="M38.293 5.414c-1.745 8.263-3.5 16.525-5.254 24.787-.101.475-.21.951-.465 1.377-.42.698-1.025.954-1.82.773-.5-.114-.933-.348-1.344-.652-2.644-1.963-5.3-3.912-7.937-5.885-.335-.251-.528-.223-.811.058-1.3 1.292-2.626 2.558-3.931 3.846-.497.492-1.048.786-1.771.761-.512-.019-.806-.228-.962-.715-.815-2.548-1.645-5.091-2.47-7.636-.28-.863-.576-1.722-.838-2.591-.095-.313-.256-.473-.572-.57-2.59-.795-5.171-1.608-7.755-2.415-.341-.106-.683-.214-.987-.406-.737-.463-.796-1.084-.155-1.671.438-.401.972-.64 1.519-.852A154348.31 154348.31 0 0 1 36.143.743c.06-.024.12-.05.18-.073 1.43-.533 2.52.215 2.53 1.827-.074.932-.35 1.919-.56 2.917zM15.11 27.817c.173-1.856.354-3.712.506-5.571.038-.461.18-.805.539-1.127 4.96-4.454 9.907-8.924 14.857-13.39.313-.283.629-.562.935-.852.126-.12.29-.257.194-.456-.102-.207-.322-.199-.516-.176-.381.044-.705.23-1.022.43-6.104 3.852-12.207 7.705-18.318 11.545-.348.218-.395.418-.271.789.756 2.26 1.489 4.527 2.229 6.792.245.747.488 1.495.734 2.249.139-.066.126-.159.133-.233z"/></g></g></svg>