<svg xmlns="http://www.w3.org/2000/svg" width="41" height="33" viewBox="0 0 41 33"><g><g><path fill="#999" d="M40.566 3.847a16.582 16.582 0 0 1-4.773 1.308A8.335 8.335 0 0 0 39.447.558a16.602 16.602 0 0 1-5.276 2.016 8.304 8.304 0 0 0-6.067-2.623 8.31 8.31 0 0 0-8.094 10.203C13.104 9.807 6.98 6.5 2.882 1.471A8.274 8.274 0 0 0 1.757 5.65a8.31 8.31 0 0 0 3.697 6.917 8.256 8.256 0 0 1-3.764-1.04l-.001.105c0 4.026 2.866 7.384 6.667 8.147a8.378 8.378 0 0 1-3.753.144 8.317 8.317 0 0 0 7.763 5.77A16.676 16.676 0 0 1 2.044 29.25c-.67 0-1.332-.039-1.981-.117A23.505 23.505 0 0 0 12.8 32.867c15.285 0 23.644-12.66 23.644-23.644 0-.36-.008-.719-.025-1.074a16.862 16.862 0 0 0 4.147-4.302z"/></g></g></svg>