<svg xmlns="http://www.w3.org/2000/svg" width="31" height="37" viewBox="0 0 31 37"><g><g><path fill="#999" d="M10.113 8.5v5.496H8.08V8.5c-.183-.975-.59-2.401-1.242-4.293-.428-1.26-.875-2.523-1.302-3.78h2.139l1.44 5.328L10.503.428h2.054zm7.873 2.222c0 1.075-.185 1.87-.569 2.379-.507.689-1.219 1.035-2.137 1.035-.912 0-1.626-.346-2.133-1.035-.39-.508-.575-1.304-.575-2.38V7.18c0-1.08.185-1.87.575-2.382.506-.69 1.22-1.036 2.133-1.036.919 0 1.63.346 2.138 1.036.384.512.569 1.302.569 2.382zm-1.832-3.91c0-.935-.283-1.4-.873-1.4-.592 0-.876.465-.876 1.4v4.255c0 .936.284 1.404.876 1.404.59 0 .873-.468.873-1.404zm6.776 7.184v-1.104c-.73.837-1.425 1.244-2.093 1.244-.59 0-.997-.24-1.18-.753-.101-.305-.163-.79-.163-1.503V3.885h1.827v7.443c0 .43 0 .654.023.713.039.284.182.43.428.43.367 0 .75-.285 1.158-.858V3.885h1.833v10.11z"/></g><g><path fill="#999" d="M30.177 19.174c.522 2.275.52 4.752.52 7.093 0 2.339-.002 4.82-.526 7.092-.367 1.594-1.672 2.77-3.243 2.948-3.719.415-7.486.417-11.233.415-3.749.002-7.514 0-11.234-.415-1.572-.177-2.876-1.354-3.242-2.948-.522-2.271-.522-4.753-.522-7.092 0-2.341.005-4.818.528-7.093.366-1.594 1.671-2.771 3.242-2.946 3.72-.416 7.486-.417 11.234-.416 3.748-.001 7.514 0 11.234.416 1.572.175 2.876 1.352 3.242 2.946zm-20.923.155H2.932v1.89h2.132v11.538h2.017V21.22h2.173zm5.478 3.423h-1.815v7.647c-.4.567-.783.848-1.146.848-.243 0-.38-.143-.425-.423-.016-.06-.016-.281-.016-.706v-7.366H9.518v7.912c0 .707.06 1.183.16 1.488.18.507.583.744 1.168.744.666 0 1.351-.404 2.071-1.23v1.09h1.815zm6.887 3.018c0-.946-.063-1.61-.183-2.011-.242-.75-.727-1.13-1.449-1.13-.666 0-1.288.366-1.873 1.085v-4.385h-1.813v13.428h1.813v-.968c.605.748 1.227 1.107 1.873 1.107.722 0 1.207-.38 1.45-1.124.12-.424.182-1.091.182-2.016zm6.843.243c0-1.07-.182-1.852-.562-2.358-.507-.685-1.229-1.026-2.138-1.026-.925 0-1.649.34-2.17 1.026-.388.506-.562 1.288-.562 2.358v3.505c0 1.062.197 1.853.582 2.352.524.684 1.245 1.026 2.195 1.026.947 0 1.69-.36 2.193-1.085a2.6 2.6 0 0 0 .422-1.086c.017-.182.04-.586.04-1.17v-.262h-1.85c0 .727-.023 1.127-.04 1.226-.104.485-.365.728-.81.728-.622 0-.925-.461-.925-1.39v-1.771h3.625z"/></g></g></svg>