<svg id="SvgjsSvg1001" width="288" height="288" xmlns="http://www.w3.org/2000/svg" fill="#ff0000" version="1.1" xmlns:xlink="http://www.w3.org/1999/xlink" xmlns:svgjs="http://svgjs.com/svgjs"><defs id="SvgjsDefs1002"></defs><g id="SvgjsG1008" transform="matrix(1,0,0,1,0,0)"><svg xmlns="http://www.w3.org/2000/svg" width="288" height="288" version="1.0" viewBox="0 0 512 512"><path d="M2330 4781 c-19 -10 -47 -36 -61 -57 -14 -21 -277 -507 -585 -1079-534 -992 -559 -1042 -559 -1092 0 -56 18 -90 69 -127 26 -20 41 -21 427 -24
219 -1 399 -5 399 -9 0 -3 -131 -425 -291 -937 -193 -615 -292 -947 -292 -977
-2 -94 73 -163 170 -156 28 2 62 11 76 20 35 23 2289 2760 2306 2800 30 71
-13 173 -85 203 -27 11 -120 14 -473 14 l-439 0 339 612 c186 336 342 626 345
644 8 46 -3 89 -34 126 -50 59 -37 58 -684 58 -558 0 -595 -1 -628 -19z m580
-912 c-187 -336 -342 -624 -345 -641 -14 -62 20 -137 79 -171 15 -9 135 -13
437 -17 l416 -5 -746 -906 c-410 -498 -747 -903 -749 -899 -1 3 88 299 198
655 110 357 200 662 200 678 0 43 -28 95 -68 125 l-35 27 -374 5 -373 5 472
877 473 878 376 0 377 0 -338 -611z" transform="matrix(.1 0 0 -.1 0 512)" fill="#ff0000" class="color000 svgShape"></path></svg></g></svg>